<mxfile host="app.diagrams.net" modified="2024-04-10T07:20:28.634Z" agent="Mozilla/5.0 (Windows NT 10.0; Win64; x64) AppleWebKit/537.36 (KHTML, like Gecko) Chrome/122.0.0.0 Safari/537.36 OPR/108.0.0.0" etag="vY6GkAB2ikTBKW5NPKfI" version="24.2.1" type="github">
  <diagram name="Page-1" id="20iOzgM7JSEzAjBv_qpO">
    <mxGraphModel dx="792" dy="428" grid="1" gridSize="10" guides="1" tooltips="1" connect="1" arrows="1" fold="1" page="1" pageScale="1" pageWidth="827" pageHeight="1169" math="0" shadow="0">
      <root>
        <mxCell id="0" />
        <mxCell id="1" parent="0" />
        <mxCell id="dS2WdTm8IWNL782DV3y3-1" value="Data Center 3" style="whiteSpace=wrap;strokeWidth=2;verticalAlign=top;" parent="1" vertex="1">
          <mxGeometry x="378" y="20" width="320" height="136" as="geometry" />
        </mxCell>
        <mxCell id="dS2WdTm8IWNL782DV3y3-2" value="Tertio System Primary Node" style="whiteSpace=wrap;strokeWidth=2;" parent="1" vertex="1">
          <mxGeometry x="403" y="71" width="126" height="34" as="geometry" />
        </mxCell>
        <mxCell id="dS2WdTm8IWNL782DV3y3-3" value="Database 3" style="shape=cylinder3;boundedLbl=1;backgroundOutline=1;size=10;strokeWidth=2;whiteSpace=wrap;" parent="1" vertex="1">
          <mxGeometry x="580" y="55" width="94" height="66" as="geometry" />
        </mxCell>
        <mxCell id="dS2WdTm8IWNL782DV3y3-4" value="Data Center 2" style="whiteSpace=wrap;strokeWidth=2;verticalAlign=top;" parent="1" vertex="1">
          <mxGeometry x="378" y="176" width="320" height="136" as="geometry" />
        </mxCell>
        <mxCell id="dS2WdTm8IWNL782DV3y3-5" value="Tertio System Secondary Node 1" style="whiteSpace=wrap;strokeWidth=2;" parent="1" vertex="1">
          <mxGeometry x="403" y="227" width="126" height="34" as="geometry" />
        </mxCell>
        <mxCell id="dS2WdTm8IWNL782DV3y3-6" value="Database 2" style="shape=cylinder3;boundedLbl=1;backgroundOutline=1;size=10;strokeWidth=2;whiteSpace=wrap;" parent="1" vertex="1">
          <mxGeometry x="580" y="211" width="94" height="66" as="geometry" />
        </mxCell>
        <mxCell id="dS2WdTm8IWNL782DV3y3-7" value="Data Center 1" style="whiteSpace=wrap;strokeWidth=2;verticalAlign=top;" parent="1" vertex="1">
          <mxGeometry x="378" y="332" width="320" height="136" as="geometry" />
        </mxCell>
        <mxCell id="dS2WdTm8IWNL782DV3y3-8" value="Tertio System Seconday Node 2" style="whiteSpace=wrap;strokeWidth=2;" parent="1" vertex="1">
          <mxGeometry x="403" y="383" width="126" height="34" as="geometry" />
        </mxCell>
        <mxCell id="dS2WdTm8IWNL782DV3y3-9" value="Database 1" style="shape=cylinder3;boundedLbl=1;backgroundOutline=1;size=10;strokeWidth=2;whiteSpace=wrap;" parent="1" vertex="1">
          <mxGeometry x="580" y="367" width="94" height="66" as="geometry" />
        </mxCell>
        <mxCell id="dS2WdTm8IWNL782DV3y3-10" value="Load Balancer" style="whiteSpace=wrap;strokeWidth=2;" parent="1" vertex="1">
          <mxGeometry x="20" y="227" width="117" height="34" as="geometry" />
        </mxCell>
        <mxCell id="dS2WdTm8IWNL782DV3y3-11" value="Service Orders / Web Calls" style="curved=1;startArrow=none;endArrow=block;exitX=0.6659548877049386;exitY=1.0058974097756779;entryX=0.0035962301587301585;entryY=0.5098290162927964;rounded=0;" parent="1" source="dS2WdTm8IWNL782DV3y3-10" target="dS2WdTm8IWNL782DV3y3-8" edge="1">
          <mxGeometry relative="1" as="geometry">
            <Array as="points">
              <mxPoint x="258" y="400" />
            </Array>
          </mxGeometry>
        </mxCell>
        <mxCell id="dS2WdTm8IWNL782DV3y3-12" value="Service Orders / Web Calls" style="curved=1;startArrow=none;endArrow=block;exitX=0.9983306623931624;exitY=0.5058974097756779;entryX=0.0035962301587301585;entryY=0.5058974097756779;rounded=0;" parent="1" source="dS2WdTm8IWNL782DV3y3-10" target="dS2WdTm8IWNL782DV3y3-5" edge="1">
          <mxGeometry relative="1" as="geometry">
            <Array as="points" />
          </mxGeometry>
        </mxCell>
        <mxCell id="dS2WdTm8IWNL782DV3y3-13" value="Service Orders / Web Calls" style="curved=1;startArrow=none;endArrow=block;exitX=0.6659548877049386;exitY=0.005897409775677849;entryX=0.0035962301587301585;entryY=0.5019658032585593;rounded=0;" parent="1" source="dS2WdTm8IWNL782DV3y3-10" target="dS2WdTm8IWNL782DV3y3-2" edge="1">
          <mxGeometry relative="1" as="geometry">
            <Array as="points">
              <mxPoint x="258" y="88" />
            </Array>
          </mxGeometry>
        </mxCell>
        <mxCell id="dS2WdTm8IWNL782DV3y3-14" value="" style="curved=1;startArrow=none;endArrow=block;exitX=1.0050843253968254;exitY=0.5098290162927964;entryX=-0.0038231382978723403;entryY=0.505063432635683;rounded=0;" parent="1" source="dS2WdTm8IWNL782DV3y3-8" target="dS2WdTm8IWNL782DV3y3-9" edge="1">
          <mxGeometry relative="1" as="geometry">
            <Array as="points" />
          </mxGeometry>
        </mxCell>
        <mxCell id="dS2WdTm8IWNL782DV3y3-15" value="" style="curved=1;startArrow=none;endArrow=block;exitX=1.0050843253968254;exitY=0.5058974097756779;entryX=-0.0038231382978723403;entryY=0.5030380595814098;rounded=0;" parent="1" source="dS2WdTm8IWNL782DV3y3-5" target="dS2WdTm8IWNL782DV3y3-6" edge="1">
          <mxGeometry relative="1" as="geometry">
            <Array as="points" />
          </mxGeometry>
        </mxCell>
        <mxCell id="dS2WdTm8IWNL782DV3y3-16" value="" style="curved=1;startArrow=none;endArrow=block;exitX=1.0050843253968254;exitY=0.5019658032585593;entryX=-0.0038231382978723403;entryY=0.5010126865271366;rounded=0;" parent="1" source="dS2WdTm8IWNL782DV3y3-2" target="dS2WdTm8IWNL782DV3y3-3" edge="1">
          <mxGeometry relative="1" as="geometry">
            <Array as="points" />
          </mxGeometry>
        </mxCell>
      </root>
    </mxGraphModel>
  </diagram>
</mxfile>
